<?xml version="1.0" encoding="utf-8"?>
<svg viewBox="0 0 500 500" xmlns="http://www.w3.org/2000/svg">
  <g transform="matrix(1, 0, 0, 1, 224.157333, 8.581244)">
    <path class="st0" d="M 240.858 118.222 C 240.058 107.522 237.758 97.222 233.858 87.222 C 218.358 50.322 190.858 28.222 151.358 20.722 C 71.758 19.222 -7.942 18.722 -87.642 19.222 C -144.942 27.722 -177.842 60.722 -186.142 118.222 C -186.842 194.922 -186.842 271.522 -186.142 348.222 C -185.642 354.622 -184.642 361.022 -183.142 367.222 C -168.342 414.022 -136.442 440.522 -87.642 446.722 C -10.942 447.422 65.658 447.422 142.358 446.722 C 148.758 446.222 155.058 445.222 161.358 443.722 C 208.158 428.922 234.658 397.022 240.858 348.222 C 241.558 271.522 241.558 194.922 240.858 118.222 Z M -37.142 318.222 C -40.742 337.322 -51.642 343.122 -69.642 335.722 C -74.042 332.622 -76.942 328.422 -78.142 323.222 C -78.842 284.522 -78.842 245.922 -78.142 207.222 C -75.442 199.322 -70.242 194.022 -62.642 191.222 C -47.442 190.122 -38.942 197.122 -37.142 212.222 C -36.442 247.522 -36.442 282.922 -37.142 318.222 Z M 47.858 322.222 C 41.958 338.422 31.158 342.922 15.358 335.722 C 11.158 332.122 8.258 327.622 6.858 322.222 C 6.158 262.922 6.158 203.522 6.858 144.222 C 9.058 135.822 14.258 130.122 22.358 127.222 C 35.658 125.822 44.158 131.422 47.858 144.222 C 48.558 203.522 48.558 262.922 47.858 322.222 Z M 132.858 323.222 C 127.758 336.722 118.258 341.522 104.358 337.722 C 96.558 333.622 92.458 327.122 91.858 318.222 C 90.958 302.222 91.258 286.222 92.858 270.222 C 95.258 262.722 100.058 257.722 107.358 255.222 C 120.158 253.822 128.658 259.222 132.858 271.222 C 133.558 288.522 133.558 305.922 132.858 323.222 Z" style="clip-rule: evenodd; fill-rule: evenodd; opacity: 0.991; fill: rgb(223, 151, 32);"/>
  </g>
</svg>